<svg width="319" height="110" viewBox="0 0 319 110" fill="none" xmlns="http://www.w3.org/2000/svg">
<path d="M166.456 100.023C166.456 97.0638 168.403 94.1045 171.113 91.1453L208.536 50.5611C214.293 44.2198 218.78 39.0623 218.78 32.1291C218.78 24.5196 212.854 20.0384 203.709 20.0384C194.565 20.0384 188.215 27.2252 188.215 35.7648H168.234C168.234 19.4466 181.188 2.02921 203.709 2.02921C226.231 2.02921 239.016 14.9654 239.016 30.8609C239.016 42.1061 232.242 50.392 223.098 60.3689L194.396 91.568H239.693V110H176.531C170.605 110 166.541 105.942 166.541 100.023" fill="url(#paint0_linear_234_368)"/>
<path d="M0 100.023C0 97.0638 1.94739 94.1045 4.65674 91.1453L42.0797 50.5611C47.8371 44.2198 52.3243 39.0623 52.3243 32.1291C52.3243 24.5196 46.3976 20.0384 37.2535 20.0384C28.1095 20.0384 21.7594 27.2252 21.7594 35.7648H1.77795C1.77795 19.4466 14.732 2.02921 37.2535 2.02921C59.775 2.02921 72.5598 14.9654 72.5598 30.8609C72.5598 42.1061 65.7865 50.392 56.6425 60.3689L27.9402 91.568H73.2372V110H10.0754C4.14873 110 0.0845947 105.942 0.0845947 100.023" fill="url(#paint1_linear_234_368)"/>
<path d="M120.143 0C95.0813 0 83.1432 23.3359 83.1432 54.9577C83.1432 86.5795 95.2506 109.915 120.143 109.915C145.035 109.915 157.142 86.5795 157.142 54.9577C157.142 23.3359 145.035 0 120.143 0ZM120.143 91.9062C109.898 91.9062 103.802 78.97 103.802 54.9577C103.802 30.9454 109.983 18.0092 120.143 18.0092C130.303 18.0092 136.484 30.9454 136.484 54.9577C136.484 78.97 130.726 91.9062 120.143 91.9062Z" fill="url(#paint2_linear_234_368)"/>
<path d="M281.688 37.3713L302.939 1.94466H282.281L251.208 53.9431C247.821 59.6925 245.45 66.4566 245.45 73.7279C245.45 93.6818 261.791 110 281.773 110C301.754 110 318.095 93.6818 318.095 73.7279C318.095 53.774 301.754 37.4558 281.519 37.4558M281.942 91.9062C272.375 91.9062 266.194 83.6203 266.194 73.6434C266.194 63.6664 272.375 55.3805 281.942 55.3805C291.509 55.3805 297.69 63.6664 297.69 73.6434C297.69 83.6203 291.509 91.9062 281.942 91.9062Z" fill="url(#paint3_linear_234_368)"/>
<defs>
<linearGradient id="paint0_linear_234_368" x1="333.264" y1="66.5" x2="-1403.24" y2="66.5" gradientUnits="userSpaceOnUse">
<stop stop-color="#EE334E"/>
<stop offset="0.5" stop-color="#0081C8"/>
<stop offset="1" stop-color="#00A651"/>
</linearGradient>
<linearGradient id="paint1_linear_234_368" x1="333.264" y1="66.5" x2="-1403.24" y2="66.5" gradientUnits="userSpaceOnUse">
<stop stop-color="#EE334E"/>
<stop offset="0.5" stop-color="#0081C8"/>
<stop offset="1" stop-color="#00A651"/>
</linearGradient>
<linearGradient id="paint2_linear_234_368" x1="333.264" y1="66.5" x2="-1403.24" y2="66.5" gradientUnits="userSpaceOnUse">
<stop stop-color="#EE334E"/>
<stop offset="0.5" stop-color="#0081C8"/>
<stop offset="1" stop-color="#00A651"/>
</linearGradient>
<linearGradient id="paint3_linear_234_368" x1="333.264" y1="66.5" x2="-1403.24" y2="66.5" gradientUnits="userSpaceOnUse">
<stop stop-color="#EE334E"/>
<stop offset="0.5" stop-color="#0081C8"/>
<stop offset="1" stop-color="#00A651"/>
</linearGradient>
</defs>
</svg>
