<svg width="20" height="20" viewBox="0 0 20 20" fill="none" xmlns="http://www.w3.org/2000/svg">
<g clip-path="url(#clip0_229_220)">
<path d="M18 10.0003V9.99633C18 7.62899 16.9693 5.50299 15.3327 4.04099L15.3247 4.03433C15.3045 4.01253 15.2819 3.99308 15.2573 3.97633L15.256 3.97566C13.8024 2.69934 11.9331 1.99722 9.99867 2.00099C7.97734 2.00099 6.132 2.75166 4.72534 3.99033L4.734 3.98299C4.71705 3.99585 4.70142 4.01037 4.68734 4.02633C3.84169 4.77512 3.1648 5.69572 2.70151 6.72585C2.23822 7.75599 1.9991 8.87281 2 10.0023C2 12.369 3.02934 14.495 4.66467 15.9577L4.67267 15.9643C4.69385 15.9883 4.71754 16.01 4.74334 16.029L4.74467 16.0297C6.19789 17.3041 8.06579 18.0052 9.99867 18.0017C11.9406 18.0046 13.8165 17.2971 15.2727 16.0123L15.264 16.0197C16.1243 15.2717 16.8139 14.3477 17.2862 13.3101C17.7584 12.2725 18.0023 11.1456 18.0013 10.0057V10.001L18 10.0003ZM15.0253 15.2037C14.629 14.8831 14.2029 14.6014 13.7527 14.3623L13.7093 14.341C14.118 13.163 14.364 11.805 14.3873 10.3923V10.3817H17.228C17.1322 12.2093 16.3456 13.9322 15.0273 15.2017L15.0253 15.2037ZM10.3813 14.2003C11.2367 14.2463 12.036 14.4343 12.7733 14.7403L12.7253 14.723C12.1347 16.0697 11.3033 16.995 10.3813 17.1983V14.2003ZM10.3813 13.4377V10.3817H13.6267C13.6009 11.6472 13.3815 12.9013 12.976 14.1003L13.002 14.013C12.1743 13.6728 11.294 13.4784 10.4 13.4383L10.382 13.4377H10.3813ZM10.3813 9.61899V6.56299C11.2994 6.52109 12.2033 6.3201 13.0527 5.96899L13 5.98832C13.37 7.06766 13.5973 8.31166 13.6267 9.60499V9.61899H10.3813ZM10.3813 5.80032V2.80366C11.3033 3.00699 12.1347 3.92833 12.7253 5.27899C12.036 5.56566 11.2367 5.75299 10.4007 5.79966L10.3813 5.80032ZM12.284 3.13366C13.0696 3.39568 13.8043 3.79077 14.456 4.30166L14.4407 4.28966C14.1453 4.52166 13.814 4.74032 13.4647 4.93032L13.4273 4.94899C13.1451 4.28281 12.7569 3.66664 12.278 3.12432L12.284 3.13166V3.13366ZM9.61734 2.80566V5.80032C8.795 5.75837 7.98594 5.57573 7.22534 5.26032L7.27334 5.27766C7.86667 3.93099 8.69667 3.00632 9.61867 2.80299L9.61734 2.80566ZM6.572 4.94699C6.21062 4.75256 5.86629 4.52799 5.54267 4.27566L5.55867 4.28766C6.19142 3.79176 6.90315 3.40592 7.664 3.14632L7.71467 3.13099C7.24828 3.65861 6.86825 4.25667 6.58867 4.90299L6.572 4.94699ZM9.61867 6.56232V9.61833H6.37334C6.40267 8.31099 6.63 7.06699 7.026 5.90032L7 5.98766C7.82738 6.32731 8.7072 6.52149 9.60067 6.56166L9.61867 6.56232ZM9.61867 10.381V13.437C8.70056 13.4789 7.79669 13.6799 6.94734 14.031L7 14.0117C6.63 12.933 6.40267 11.6883 6.37334 10.395V10.381H9.61867ZM9.61867 14.1997V17.1963C8.69667 16.993 7.86534 16.0717 7.27467 14.721C7.964 14.4343 8.76334 14.2477 9.59934 14.201L9.61867 14.1997ZM7.71867 16.8663C6.9333 16.6051 6.19863 16.2109 5.54667 15.701L5.56267 15.713C5.858 15.481 6.18934 15.2623 6.53867 15.0723L6.576 15.0537C6.85592 15.7201 7.24404 16.3357 7.72467 16.8757L7.71867 16.869V16.8663ZM13.428 15.053C13.8147 15.263 14.146 15.481 14.4573 15.7243L14.4413 15.7123C13.8086 16.2082 13.0969 16.5941 12.336 16.8537L12.2853 16.869C12.7517 16.3416 13.1317 15.7438 13.4113 15.0977L13.428 15.0543V15.053ZM17.228 9.61899H14.3873C14.3669 8.23963 14.1289 6.87213 13.682 5.56699L13.7093 5.65899C14.1803 5.41103 14.6261 5.11811 15.0407 4.78433L15.0247 4.79632C16.3402 6.06101 17.1271 7.77755 17.2267 9.59966L17.228 9.61899ZM4.97467 4.79699C5.35867 5.10899 5.79 5.39499 6.24734 5.63832L6.29067 5.65966C5.882 6.83766 5.636 8.19566 5.61267 9.60832V9.61899H2.77134C2.86713 7.79139 3.65377 6.06846 4.972 4.79899L4.97467 4.79699ZM2.772 10.3817H5.61267C5.63311 11.761 5.87115 13.1285 6.318 14.4337L6.29067 14.3417C5.79 14.6077 5.35934 14.8937 4.95934 15.2163L4.97534 15.2043C3.65983 13.9396 2.87291 12.2231 2.77334 10.401L2.77267 10.3823L2.772 10.3817Z" fill="black"/>
</g>
<defs>
<clipPath id="clip0_229_220">
<rect width="16" height="16" fill="white" transform="translate(2 2)"/>
</clipPath>
</defs>
</svg>
