<svg width="200" height="60" viewBox="0 0 200 60" fill="none" xmlns="http://www.w3.org/2000/svg">
<g clip-path="url(#clip0_289_4406)">
<path d="M104.895 34.2323C104.662 34.0192 104.546 33.7536 104.546 33.4159V29.0258H100.346V33.8454C100.346 34.7438 100.631 35.5307 101.187 36.2061C101.75 36.8848 102.458 37.2225 103.336 37.2225H118.645V34.534H105.797C105.421 34.534 105.126 34.4258 104.899 34.2258L104.895 34.2323ZM110.611 21.0454C110.611 19.4126 109.97 17.9307 108.906 16.793H111.709V14.252H105.906V11.4946H101.529V14.252H95.8242V16.793H98.4717C97.4073 17.9307 96.7598 19.4126 96.7598 21.0454C96.7598 24.629 99.8649 27.5274 103.689 27.5274C107.512 27.5274 110.614 24.629 110.614 21.0454H110.611ZM100.963 20.8192C100.963 18.4913 102.184 16.6028 103.689 16.6028C105.194 16.6028 106.417 18.4913 106.417 20.8192C106.417 23.1471 105.197 25.0389 103.689 25.0389C102.18 25.0389 100.963 23.1503 100.963 20.8192ZM118.645 18.4553V11.4913H114.445V30.7504H115.892C117.417 30.7504 118.645 29.8258 118.645 27.4651V21.0717H122.509V18.452H118.645V18.4553Z" fill="#221E1F"/>
<path d="M144.122 11.4913V37.2258H145.41C146.936 37.2258 148.17 36.3012 148.17 33.9372V11.4913H144.119H144.122ZM138.36 19.4815H134.461V22.1143H138.36V37.229H139.644C141.17 37.229 142.407 36.3044 142.407 33.9405V11.4946H138.36V19.4848V19.4815ZM133.217 24.6782C132.492 23.0225 132.129 21.0389 132.129 18.7569V16.7799H136.153V14.252H132.129V11.4946H127.77V14.252H123.726V16.7799H127.77V18.6946C127.77 21.0618 127.39 23.0881 126.617 24.7667C125.851 26.4487 124.736 27.5438 123.258 28.0749V30.8651C123.976 30.7504 124.709 30.5405 125.41 30.2225C126.136 29.9176 126.79 29.5405 127.363 29.1077C127.966 28.6782 128.478 28.2126 128.912 27.7143C129.329 27.2126 129.634 26.7339 129.824 26.2651C129.976 26.7208 130.275 27.1995 130.726 27.6946C131.183 28.2061 131.712 28.6913 132.346 29.1339C132.97 29.5667 133.654 29.9503 134.404 30.2684C135.149 30.5864 135.892 30.7766 136.644 30.8618V28.0717C135.085 27.4717 133.949 26.3307 133.217 24.6749V24.6782Z" fill="#221E1F"/>
<path d="M175.379 25.0782V22.4487H168.382C169.02 21.8159 169.521 21.0749 169.891 20.2454C170.25 19.3995 170.437 18.5307 170.437 17.6094C170.437 16.6881 170.25 15.8356 169.891 14.993C169.525 14.1471 169.013 13.4028 168.345 12.77C167.664 12.1307 166.857 11.6225 165.918 11.229C164.989 10.8454 163.949 10.6553 162.81 10.6553C161.671 10.6553 160.555 10.852 159.62 11.2389C158.674 11.6422 157.874 12.1602 157.21 12.7897C156.545 13.429 156.037 14.1635 155.667 15.0028C155.301 15.8389 155.121 16.711 155.121 17.6094C155.121 18.5077 155.301 19.3864 155.65 20.2225C156.006 21.0651 156.518 21.8159 157.21 22.4487H150.169V25.0782H155.684V27.8422H152.871V30.6061H168.077V37.229H169.688C171.118 37.1635 172.271 36.2225 172.271 33.9504V27.8454H169.877V25.0815H175.383L175.379 25.0782ZM165.637 27.8422H159.908V25.0782H165.637V27.8422ZM165.237 20.7569C164.569 21.6225 163.752 22.0553 162.772 22.0553C161.793 22.0553 160.959 21.629 160.301 20.8028C159.637 19.9635 159.321 18.9045 159.321 17.6061C159.321 17.0225 159.406 16.4684 159.572 15.9241C159.742 15.3963 159.979 14.9209 160.288 14.511C160.599 14.111 160.969 13.7963 161.393 13.5471C161.823 13.3012 162.291 13.1799 162.81 13.1799C163.803 13.1799 164.623 13.6225 165.264 14.4946C165.911 15.3667 166.233 16.3995 166.233 17.6061C166.233 18.8127 165.905 19.8946 165.24 20.7569H165.237Z" fill="#221E1F"/>
<path d="M195.932 11.4913V28.4323C195.027 29.3438 193.214 29.5864 192.376 29.5864H187.247V28.1569C188.549 27.7569 189.695 26.9995 190.671 25.8782C191.644 24.7536 192.129 23.3143 192.129 21.57C192.129 20.593 191.936 19.7012 191.539 18.8979C191.142 18.0881 190.654 17.3799 190.051 16.7799H193.007V14.252H187.339V11.4946H182.986V14.252H177.437V16.7799H180.183C179.58 17.3766 179.095 18.0881 178.719 18.8979C178.353 19.7012 178.156 20.593 178.156 21.57C178.156 23.3143 178.644 24.7536 179.614 25.8782C180.576 26.9995 181.729 27.7569 183.085 28.1569V29.5864H176.942V32.2684H191.224C193.458 32.2684 195.129 31.5831 195.939 30.8192V37.2258H197.386C198.905 37.2258 200.142 36.3012 200.142 33.9372V11.4913H195.939H195.932ZM185.129 25.934C184.397 25.934 183.759 25.5241 183.203 24.7077C182.634 23.8913 182.359 22.8422 182.359 21.57C182.359 20.1995 182.651 19.0848 183.227 18.2422C183.817 17.3995 184.447 16.9733 185.153 16.9733C185.905 16.9733 186.563 17.4061 187.108 18.2585C187.651 19.1208 187.929 20.2192 187.929 21.57C187.929 22.9208 187.634 23.9208 187.041 24.7241C186.451 25.5274 185.814 25.934 185.129 25.934Z" fill="#221E1F"/>
<path d="M88.8169 11.4913V19.5307H86.7966V11.4913H82.7457V27.052C81.8474 27.9635 80.0271 28.2061 79.1932 28.2061H74.1254C73.6949 28.2061 73.3593 28.1175 73.1288 27.9405C72.9017 27.7634 72.783 27.5012 72.783 27.1602V15.688H80.6915V13.1471H68.583V27.3962C68.583 28.3503 68.8983 29.17 69.5186 29.852C70.1389 30.5372 70.9186 30.888 71.8542 30.888H78.0813V30.8815C80.2915 30.8749 81.9457 30.1962 82.7491 29.4421V37.2225H84.0406C85.5627 37.2225 86.8 36.2979 86.8 33.9339V22.1503H88.8203V37.2225H90.105C91.6305 37.2225 92.8644 36.2979 92.8644 33.9339V11.488H88.8203L88.8169 11.4913Z" fill="#221E1F"/>
<path d="M68.5898 42.3807H69.4407V44.9119L71.9797 42.3807H73.1119L70.3187 45.0988L73.3356 48.1315H72.0915L69.4407 45.3152V48.1315H68.5898V42.3807Z" fill="#221E1F"/>
<path d="M75.4977 43.8301C76.8198 43.8301 77.7045 44.7514 77.7045 46.0301C77.7045 47.2334 76.8028 48.2301 75.4977 48.2301C74.1927 48.2301 73.2842 47.2334 73.2842 46.0301C73.2842 44.7514 74.1689 43.8301 75.4977 43.8301ZM75.4977 47.6039C76.4333 47.6039 76.8537 46.7809 76.8537 46.0301C76.8537 45.2301 76.352 44.4563 75.4977 44.4563C74.6435 44.4563 74.135 45.2301 74.135 46.0301C74.135 46.7809 74.552 47.6039 75.4977 47.6039Z" fill="#221E1F"/>
<path d="M78.5225 43.9315H79.2716V44.584H79.2886C79.5021 44.1479 79.9631 43.8331 80.4208 43.8331C80.658 43.8331 80.7801 43.8594 80.9496 43.8921V44.584C80.8038 44.5249 80.6445 44.5085 80.5055 44.5085C79.7902 44.5085 79.3225 45.1676 79.3225 46.2233V48.1348H78.5225V43.9315Z" fill="#221E1F"/>
<path d="M84.844 47.961C84.5389 48.0692 84.1897 48.2331 83.4711 48.2331C81.9287 48.2331 81.2236 47.3282 81.2236 45.9577C81.2236 44.7118 82.0338 43.8331 83.2609 43.8331C84.7084 43.8331 85.1762 44.8561 85.1762 46.2069H82.0745C82.0745 47.0397 82.7491 47.6069 83.505 47.6069C84.0338 47.6069 84.6474 47.3446 84.844 47.1872V47.961ZM84.3219 45.6266C84.3219 44.9839 83.9287 44.4561 83.2406 44.4561C82.4575 44.4561 82.1321 45.0823 82.0745 45.6266H84.3219Z" fill="#221E1F"/>
<path d="M86.1355 44.2266C86.5355 43.9971 87.0135 43.8298 87.566 43.8298C88.8101 43.8298 89.3118 44.4233 89.3118 45.5675V47.3052C89.3118 47.7839 89.3288 48.0069 89.3457 48.1282H88.5965V47.5839H88.5796C88.3932 47.8397 87.966 48.2266 87.2338 48.2266C86.2982 48.2266 85.6406 47.8298 85.6406 46.9151C85.6406 45.8593 86.8338 45.5315 87.661 45.5315C87.9762 45.5315 88.1965 45.5315 88.5118 45.5479C88.5118 44.8233 88.2406 44.4528 87.4372 44.4528C86.9864 44.4528 86.5016 44.6167 86.1762 44.8823L86.1321 44.2233L86.1355 44.2266ZM88.5152 46.1315C88.3457 46.1315 88.1728 46.1151 88.0033 46.1151C87.5694 46.1151 86.4949 46.1807 86.4949 46.9216C86.4949 47.3675 86.9389 47.6069 87.305 47.6069C88.0982 47.6069 88.5152 47.1282 88.5152 46.502V46.1315Z" fill="#221E1F"/>
<path d="M90.373 43.9315H91.1493V44.6003H91.1663C91.4036 44.1217 91.9832 43.8331 92.59 43.8331C93.7154 43.8331 94.2171 44.5085 94.2171 45.6364V48.1348H93.4171V45.961C93.4171 44.9807 93.1968 44.502 92.4985 44.4626C91.5866 44.4626 91.1798 45.1708 91.1798 46.1938V48.138H90.3798V43.9348L90.373 43.9315Z" fill="#221E1F"/>
<path d="M100.16 43.2463C99.7258 43.0823 99.4851 43.0069 99.0444 43.0069C98.5664 43.0069 98.0037 43.1709 98.0037 43.7742C98.0037 44.8791 100.56 44.6233 100.56 46.5184C100.56 47.7446 99.58 48.2332 98.3868 48.2332C97.9698 48.2332 97.5596 48.1184 97.1698 47.9938L97.2546 47.2266C97.5427 47.3414 98.0546 47.5053 98.4885 47.5053C98.9732 47.5053 99.6546 47.243 99.6546 46.5643C99.6546 45.2791 97.0986 45.6332 97.0986 43.8463C97.0986 42.8233 97.9325 42.2823 99.0071 42.2823C99.4003 42.2823 99.8681 42.3479 100.275 42.4889L100.156 43.2463H100.16Z" fill="#221E1F"/>
<path d="M101.39 43.9315H102.156V44.5249H102.173C102.386 44.2102 102.881 43.8331 103.647 43.8331C104.908 43.8331 105.522 44.8299 105.522 45.9577C105.522 47.0856 104.969 48.2331 103.657 48.2331C102.891 48.2331 102.457 47.9446 102.21 47.5577H102.193V49.8659H101.393V43.9348L101.39 43.9315ZM103.474 44.4561C102.607 44.4561 102.19 45.2561 102.19 46.0397C102.19 46.7413 102.566 47.6069 103.468 47.6069C104.369 47.6069 104.685 46.6758 104.668 46.0167C104.685 45.2594 104.346 44.4594 103.474 44.4594V44.4561Z" fill="#221E1F"/>
<path d="M108.305 43.8301C109.627 43.8301 110.512 44.7514 110.512 46.0301C110.512 47.2334 109.61 48.2301 108.305 48.2301C107 48.2301 106.092 47.2334 106.092 46.0301C106.092 44.7514 106.977 43.8301 108.305 43.8301ZM108.305 47.6039C109.241 47.6039 109.661 46.7809 109.661 46.0301C109.661 45.2301 109.16 44.4563 108.305 44.4563C107.451 44.4563 106.943 45.2301 106.943 46.0301C106.943 46.7809 107.36 47.6039 108.305 47.6039Z" fill="#221E1F"/>
<path d="M111.329 43.9315H112.078V44.584H112.095C112.309 44.1479 112.77 43.8331 113.227 43.8331C113.465 43.8331 113.583 43.8594 113.756 43.8921V44.584C113.61 44.5249 113.451 44.5085 113.312 44.5085C112.597 44.5085 112.129 45.1676 112.129 46.2233V48.1348H111.329V43.9315Z" fill="#221E1F"/>
<path d="M116.976 44.5575H115.827V46.8558C115.827 47.3411 116.132 47.6067 116.501 47.6067C116.749 47.6067 116.928 47.5312 117.047 47.4591V48.1181C116.867 48.1673 116.62 48.2329 116.366 48.2329C115.538 48.2329 115.027 47.8526 115.027 47.0132V44.5575H114.047V43.9312H115.027V42.9607L115.827 42.7148V43.9345H116.976V44.5607V44.5575Z" fill="#221E1F"/>
<path d="M124.112 45.0266C124.034 45.9578 123.773 46.4922 123.431 46.9971L124.471 48.1348H123.407L122.922 47.5742C122.495 48.043 121.976 48.2332 121.217 48.2332C120.041 48.2332 119.302 47.5905 119.302 46.6266C119.302 45.7545 119.831 45.2594 120.631 44.9446C120.315 44.5742 120.017 44.1873 120.017 43.6332C120.017 42.7119 120.715 42.2823 121.566 42.2823C122.342 42.2823 123.041 42.6791 123.041 43.584C123.041 44.3184 122.366 44.8102 121.739 45.0824L122.949 46.4168C123.18 46.0627 123.275 45.6824 123.315 45.0233H124.115L124.112 45.0266ZM121.37 47.6037C121.922 47.6037 122.281 47.2561 122.468 47.0528L121.037 45.4299C120.587 45.7283 120.203 45.9971 120.203 46.5676C120.203 47.2037 120.756 47.6069 121.37 47.6069V47.6037ZM121.346 44.6233C121.705 44.4594 122.241 44.1053 122.241 43.6168C122.241 43.0889 121.942 42.9086 121.532 42.9086C121.122 42.9086 120.817 43.1545 120.817 43.6496C120.817 44.0365 121.088 44.3512 121.346 44.6201V44.6233Z" fill="#221E1F"/>
<path d="M129.01 42.2823C130.817 42.2823 131.871 43.5512 131.871 45.2561C131.871 46.961 130.824 48.2299 129.01 48.2299C127.197 48.2299 126.149 47.0004 126.149 45.2561C126.149 43.5119 127.207 42.2823 129.01 42.2823ZM129.01 47.5053C130.383 47.5053 130.97 46.4004 130.97 45.2561C130.97 44.1119 130.322 42.9971 129.01 43.0069C127.699 42.9971 127.051 44.0856 127.051 45.2561C127.051 46.4266 127.638 47.5053 129.01 47.5053Z" fill="#221E1F"/>
<path d="M132.854 41.9512H133.654V48.1315H132.854V41.9512Z" fill="#221E1F"/>
<path d="M134.522 49.2687C134.624 49.3015 134.759 49.3343 134.898 49.3343C135.613 49.3343 135.851 48.3769 135.851 48.2949C135.851 48.2031 135.749 47.99 135.698 47.849L134.224 43.9277H135.102L136.268 47.4064H136.285L137.478 43.9277H138.288L136.688 48.2195C136.39 49.0261 136.074 49.9572 135.017 49.9572C134.763 49.9572 134.617 49.9245 134.471 49.8982L134.522 49.2622V49.2687Z" fill="#221E1F"/>
<path d="M138.844 43.9315H139.593V44.5413H139.61C139.919 44.0561 140.353 43.8331 140.99 43.8331C141.492 43.8331 141.997 44.079 142.224 44.6495C142.522 44.0495 143.176 43.8331 143.57 43.8331C144.678 43.8331 145.078 44.5249 145.078 45.4397V48.1348H144.278V45.6299C144.278 45.1118 144.149 44.4594 143.502 44.4594C142.685 44.4594 142.359 45.2331 142.359 46.0167V48.1348H141.559V45.6299C141.559 45.1118 141.431 44.4594 140.783 44.4594C139.966 44.4594 139.641 45.2331 139.641 46.0167V48.1348H138.841V43.9315H138.844Z" fill="#221E1F"/>
<path d="M146.152 43.9315H146.918V44.5249H146.935C147.149 44.2102 147.644 43.8331 148.41 43.8331C149.671 43.8331 150.285 44.8299 150.285 45.9577C150.285 47.0856 149.732 48.2331 148.42 48.2331C147.654 48.2331 147.22 47.9446 146.973 47.5577H146.956V49.8659H146.156V43.9348L146.152 43.9315ZM148.24 44.4561C147.373 44.4561 146.956 45.2561 146.956 46.0397C146.956 46.7413 147.332 47.6069 148.234 47.6069C149.135 47.6069 149.451 46.6758 149.434 46.0167C149.451 45.2594 149.112 44.4594 148.24 44.4594V44.4561Z" fill="#221E1F"/>
<path d="M152.017 42.9905H151.115V42.1184H152.017V42.9905ZM151.163 43.9315H151.963V48.1348H151.163V43.9315Z" fill="#221E1F"/>
<path d="M155.898 44.6397C155.59 44.5151 155.285 44.4594 155.031 44.4594C154.136 44.4594 153.634 45.2331 153.634 46.0331C153.634 46.7839 154.051 47.6069 155.081 47.6069C155.353 47.6069 155.695 47.5249 155.943 47.3676L156.004 48.0594C155.671 48.2069 155.288 48.2331 154.997 48.2331C153.685 48.2331 152.783 47.2364 152.783 46.0331C152.783 44.7544 153.668 43.8331 154.997 43.8331C155.322 43.8331 155.739 43.9085 155.97 43.9971L155.902 44.6397H155.898Z" fill="#221E1F"/>
<path d="M162.908 43.3283C162.532 43.1151 162.115 43.0069 161.681 43.0069C160.308 43.0069 159.396 43.9643 159.396 45.2561C159.396 46.5479 160.4 47.5053 161.637 47.5053C162.064 47.5053 162.634 47.3971 162.932 47.2266L162.983 48.0266C162.532 48.2069 161.976 48.2332 161.627 48.2332C159.745 48.2332 158.491 47.0627 158.491 45.2332C158.491 43.4037 159.82 42.2823 161.634 42.2823C162.095 42.2823 162.545 42.3479 162.973 42.5283L162.905 43.3283H162.908Z" fill="#221E1F"/>
<path d="M165.563 43.8301C166.885 43.8301 167.77 44.7514 167.77 46.0301C167.77 47.2334 166.868 48.2301 165.563 48.2301C164.258 48.2301 163.35 47.2334 163.35 46.0301C163.35 44.7514 164.234 43.8301 165.563 43.8301ZM165.563 47.6039C166.499 47.6039 166.919 46.7809 166.919 46.0301C166.919 45.2301 166.417 44.4563 165.563 44.4563C164.709 44.4563 164.2 45.2301 164.2 46.0301C164.2 46.7809 164.617 47.6039 165.563 47.6039Z" fill="#221E1F"/>
<path d="M168.58 43.9315H169.329V44.5413H169.346C169.654 44.0561 170.088 43.8331 170.725 43.8331C171.227 43.8331 171.732 44.079 171.959 44.6495C172.258 44.0495 172.912 43.8331 173.305 43.8331C174.413 43.8331 174.813 44.5249 174.813 45.4397V48.1348H174.013V45.6299C174.013 45.1118 173.885 44.4594 173.237 44.4594C172.42 44.4594 172.095 45.2331 172.095 46.0167V48.1348H171.295V45.6299C171.295 45.1118 171.166 44.4594 170.519 44.4594C169.702 44.4594 169.376 45.2331 169.376 46.0167V48.1348H168.576V43.9315H168.58Z" fill="#221E1F"/>
<path d="M175.885 43.9315H176.634V44.5413H176.651C176.96 44.0561 177.394 43.8331 178.031 43.8331C178.533 43.8331 179.038 44.079 179.265 44.6495C179.563 44.0495 180.217 43.8331 180.611 43.8331C181.719 43.8331 182.119 44.5249 182.119 45.4397V48.1348H181.319V45.6299C181.319 45.1118 181.19 44.4594 180.543 44.4594C179.726 44.4594 179.4 45.2331 179.4 46.0167V48.1348H178.6V45.6299C178.6 45.1118 178.472 44.4594 177.824 44.4594C177.007 44.4594 176.682 45.2331 176.682 46.0167V48.1348H175.882V43.9315H175.885Z" fill="#221E1F"/>
<path d="M184.084 42.9903H183.183V42.1182H184.084V42.9903ZM183.233 43.9313H184.033V48.1346H183.233V43.9313Z" fill="#221E1F"/>
<path d="M187.532 44.5575H186.383V46.8558C186.383 47.3411 186.688 47.6067 187.058 47.6067C187.305 47.6067 187.485 47.5312 187.604 47.4591V48.1181C187.424 48.1673 187.176 48.2329 186.922 48.2329C186.095 48.2329 185.583 47.8526 185.583 47.0132V44.5575H184.604V43.9312H185.583V42.9607L186.383 42.7148V43.9345H187.532V44.5607V44.5575Z" fill="#221E1F"/>
<path d="M190.807 44.5575H189.658V46.8558C189.658 47.3411 189.963 47.6067 190.332 47.6067C190.58 47.6067 190.759 47.5312 190.878 47.4591V48.1181C190.698 48.1673 190.451 48.2329 190.197 48.2329C189.369 48.2329 188.858 47.8526 188.858 47.0132V44.5575H187.878V43.9312H188.858V42.9607L189.658 42.7148V43.9345H190.807V44.5607V44.5575Z" fill="#221E1F"/>
<path d="M194.807 47.961C194.498 48.0692 194.149 48.2331 193.434 48.2331C191.892 48.2331 191.187 47.3282 191.187 45.9577C191.187 44.7118 191.997 43.8331 193.224 43.8331C194.671 43.8331 195.142 44.8561 195.142 46.2069H192.041C192.041 47.0397 192.715 47.6069 193.471 47.6069C194 47.6069 194.614 47.3446 194.81 47.1872V47.961H194.807ZM194.288 45.6266C194.288 44.9839 193.895 44.4561 193.207 44.4561C192.424 44.4561 192.098 45.0823 192.041 45.6266H194.288Z" fill="#221E1F"/>
<path d="M199.325 47.961C199.017 48.0692 198.668 48.2331 197.953 48.2331C196.41 48.2331 195.705 47.3282 195.705 45.9577C195.705 44.7118 196.515 43.8331 197.742 43.8331C199.19 43.8331 199.661 44.8561 199.661 46.2069H196.559C196.559 47.0397 197.234 47.6069 197.99 47.6069C198.519 47.6069 199.132 47.3446 199.329 47.1872V47.961H199.325ZM198.807 45.6266C198.807 44.9839 198.414 44.4561 197.725 44.4561C196.942 44.4561 196.617 45.0823 196.559 45.6266H198.807Z" fill="#221E1F"/>
<path d="M50.5791 3.7677C53.891 9.18737 48.0944 17.1382 36.1384 21.7152C23.4232 26.5841 10.0605 25.1415 7.46387 24.6956C7.46387 24.6956 9.71472 27.3579 17.3588 28.6234C22.8808 29.5382 30.0944 28.312 35.7825 26.1251C49.2266 20.9415 55.552 10.0398 50.5757 3.7677H50.5791Z" fill="url(#paint0_linear_289_4406)"/>
<path d="M48.1756 11.5808C52.2773 5.81363 49.3044 0.403794 41.0908 0.0496959C39.6908 -0.0125991 38.2061 0.102156 36.6908 0.384124C31.3756 1.36773 27.2807 3.88248 25.3722 6.19396C23.3925 8.59396 23.5078 10.9087 24.4705 12.0464C26.1417 14.0235 30.2535 13.4497 31.7044 11.0399C29.8468 9.93822 33.5044 4.84642 40.24 4.71199C45.0976 4.61363 47.0976 7.53494 46.5247 10.2989C45.9213 13.2136 43.1959 15.9546 41.4162 17.4759C41.4162 17.4759 45.6264 15.1546 48.1722 11.5808H48.1756Z" fill="url(#paint1_radial_289_4406)"/>
<path d="M39.0533 8.74111C36.1244 7.82307 32.8499 9.20996 31.7007 11.0427C33.9177 12.3214 31.1787 16.8165 24.9922 16.8919C20.2058 16.9509 17.3956 14.1477 18.7075 10.5247C20.2973 6.13783 27.8871 1.82307 34.4939 0.255859C25.8804 1.63619 19.7414 5.27225 16.1956 9.36078C11.2838 15.0264 12.9753 20.5772 20.4227 21.9542C24.2939 22.669 28.9414 22.2854 33.5414 20.6427C43.9888 16.905 44.0126 10.3018 39.0533 8.74438V8.74111Z" fill="url(#paint2_radial_289_4406)"/>
<path d="M40.1418 42.8587C40.4062 42.8587 40.674 42.8718 40.9316 42.898C41.4977 42.9505 42.0468 43.0685 42.5689 43.2325C45.3519 44.1079 47.4468 46.4489 47.8943 49.3144C48.4197 49.4784 48.9655 49.5964 49.5316 49.6489C49.179 45.7571 46.2977 42.5702 42.4909 41.6226C41.9824 41.4948 41.4604 41.4128 40.9214 41.3669C40.6638 41.3472 40.3994 41.3341 40.1384 41.3341C39.8502 41.3341 39.5655 41.3505 39.2841 41.3767C39.3079 41.6194 39.318 41.862 39.318 42.1144C39.318 42.38 39.3045 42.6456 39.2773 42.9079C39.5621 42.8784 39.8434 42.862 40.1384 42.862" fill="#00A650"/>
<path d="M50.3287 32.9603C45.3727 32.9603 41.3049 36.662 40.9219 41.3669C41.4642 41.4095 41.9829 41.4915 42.4914 41.6193C42.7422 37.639 46.149 34.4849 50.3253 34.4849C54.5015 34.4849 58.1863 37.8849 58.1863 42.0849C58.1863 46.2849 54.6676 49.6849 50.3253 49.6849C50.0575 49.6849 49.7931 49.6718 49.532 49.6456C48.9659 49.5931 48.4202 49.4751 47.8948 49.3079C45.1117 48.4292 43.0168 46.0915 42.5693 43.2292C42.0439 43.0652 41.4981 42.9472 40.932 42.8947C41.2846 46.7865 44.1626 49.9767 47.9727 50.9242C48.4812 51.0456 49.0032 51.1341 49.5422 51.1767C49.8032 51.1964 50.0642 51.2095 50.3287 51.2095C55.5422 51.2095 59.7659 47.1242 59.7659 42.0849C59.7659 37.0456 55.5422 32.957 50.3287 32.957" fill="#EE334E"/>
<path d="M18.8607 41.396C18.4946 36.6747 14.4268 32.96 9.4505 32.96C4.47423 32.96 0.0166016 37.0452 0.0166016 42.0878C0.0166016 47.1305 4.24372 51.2124 9.4505 51.2124C9.73525 51.2124 10.0132 51.1993 10.2844 51.1764C10.2708 50.9468 10.2573 50.7173 10.2573 50.4846C10.2573 50.1993 10.2708 49.9206 10.2946 49.6386C10.02 49.6714 9.73524 49.6878 9.44711 49.6878C5.11151 49.6878 1.58948 46.2845 1.58948 42.0878C1.58948 37.8911 5.11151 34.4845 9.44711 34.4845C13.7827 34.4845 17.0539 37.6583 17.2878 41.6583C17.2946 41.7993 17.3081 41.9403 17.3081 42.0878C17.3081 42.4944 17.2641 42.8911 17.1997 43.278C16.7386 46.1009 14.6742 48.4059 11.9352 49.2911C11.8708 49.6813 11.8268 50.078 11.8268 50.4846C11.8268 50.6321 11.8403 50.7731 11.8505 50.9108C15.62 49.9534 18.4742 46.7895 18.8369 42.9272C18.8641 42.6518 18.881 42.3698 18.881 42.0878C18.881 41.8518 18.8708 41.6255 18.8505 41.396" fill="#0081C8"/>
<path d="M19.6941 42.8846C19.9619 42.8846 20.2263 42.8977 20.4907 42.9239C21.0535 42.9797 21.6026 43.0977 22.128 43.2616C24.9145 44.1371 27.006 46.4748 27.4568 49.3371C27.9823 49.501 28.528 49.619 29.0941 49.6715C28.7348 45.783 25.8636 42.5961 22.0501 41.6485C21.5416 41.5207 21.0162 41.4387 20.4806 41.3961C20.2229 41.3764 19.9585 41.3633 19.6941 41.3633C19.4128 41.3633 19.1382 41.3764 18.8602 41.3993C18.8806 41.6289 18.8907 41.8551 18.8907 42.0912C18.8907 42.3731 18.8738 42.6551 18.8467 42.9305C19.128 42.9043 19.4094 42.8879 19.6941 42.8879" fill="#FCB130"/>
<path d="M27.5315 50.9505C27.2841 54.9308 23.8773 58.0849 19.6976 58.0849C15.518 58.0849 12.0908 54.9079 11.8637 50.9079C11.8536 50.7669 11.84 50.6259 11.84 50.4816C11.84 50.0784 11.8841 49.6783 11.9485 49.2882C12.4095 46.462 14.4705 44.1603 17.2129 43.2751C17.2773 42.8849 17.3214 42.4915 17.3214 42.0849C17.3214 41.9374 17.3078 41.7964 17.301 41.6554C13.5281 42.6161 10.6773 45.7767 10.3078 49.6325C10.2841 49.9144 10.2705 50.1964 10.2705 50.4783C10.2705 50.7144 10.2841 50.9406 10.2976 51.1702C10.6637 55.8849 14.7349 59.6095 19.7078 59.6095C24.6807 59.6095 28.7349 55.9013 29.1112 51.1964C28.5756 51.1538 28.0502 51.0685 27.5417 50.9439" fill="#FCB130"/>
<path d="M29.8839 49.7107C29.6161 49.7107 29.3517 49.6976 29.0907 49.6714C28.5246 49.6156 27.9788 49.5009 27.4534 49.3369C24.6704 48.4615 22.5754 46.1238 22.1246 43.2615C21.6026 43.0976 21.0534 42.9796 20.4873 42.9238C20.8398 46.8124 23.7178 50.0058 27.528 50.9501C28.0365 51.0746 28.5619 51.1599 29.0975 51.2025C29.3585 51.2255 29.6195 51.2353 29.8839 51.2353C30.1721 51.2353 30.4568 51.2222 30.7348 51.1992C30.7144 50.9566 30.7009 50.7107 30.7009 50.4615C30.7009 50.1894 30.7144 49.9271 30.7381 49.6648C30.4568 49.6943 30.1721 49.7107 29.8839 49.7107Z" fill="#221E1F"/>
<path d="M39.2912 41.3735C38.9013 36.6784 34.8437 32.9866 29.8878 32.9866C24.9318 32.9866 20.864 36.6882 20.4844 41.3964C21.02 41.439 21.5454 41.521 22.0539 41.6489C22.3047 37.6653 25.7081 34.5144 29.8878 34.5144C34.0674 34.5144 37.4674 37.6653 37.7217 41.6423C37.7352 41.7964 37.7488 41.9538 37.7488 42.1177C37.7488 42.5079 37.7081 42.8882 37.6505 43.262C37.2064 46.1046 35.1352 48.4292 32.3861 49.321C32.3251 49.6948 32.2878 50.0718 32.2878 50.4685C32.2878 50.6259 32.3013 50.7833 32.3115 50.9407C36.0979 49.9735 38.9488 46.7899 39.2912 42.9112C39.3183 42.6489 39.3318 42.3833 39.3318 42.1177C39.3318 41.8685 39.3217 41.6226 39.2979 41.38" fill="#221E1F"/>
<path d="M47.9728 50.9275C47.722 54.9046 44.3186 58.062 40.1423 58.062C35.966 58.062 32.5593 54.9079 32.305 50.9341C32.2949 50.7767 32.2813 50.6194 32.2813 50.462C32.2813 50.0685 32.3186 49.6915 32.3796 49.3144C32.8237 46.4685 34.8915 44.1439 37.644 43.2554C37.7016 42.8816 37.7423 42.5013 37.7423 42.1112C37.7423 41.9505 37.7287 41.7931 37.7152 41.6357C33.9321 42.603 31.0847 45.7866 30.7355 49.662C30.7118 49.9243 30.6982 50.1898 30.6982 50.462C30.6982 50.7079 30.7118 50.9571 30.7321 51.1997C31.1186 55.8915 35.1796 59.5866 40.1355 59.5866C45.0915 59.5866 49.1559 55.8816 49.5355 51.18C48.9965 51.1374 48.4745 51.0489 47.966 50.9275" fill="#00A650"/>
</g>
<defs>
<linearGradient id="paint0_linear_289_4406" x1="10.4471" y1="30.9131" x2="53.1629" y2="8.54184" gradientUnits="userSpaceOnUse">
<stop offset="0.1" stop-color="#00BBF2"/>
<stop offset="0.4" stop-color="#0074BE"/>
<stop offset="1" stop-color="#004C98"/>
</linearGradient>
<radialGradient id="paint1_radial_289_4406" cx="0" cy="0" r="1" gradientTransform="matrix(24.1385 2.39621 -2.50528 23.6094 24.7703 13.7924)" gradientUnits="userSpaceOnUse">
<stop stop-color="#F26521"/>
<stop offset="0.51" stop-color="#ED1B23"/>
<stop offset="1" stop-color="#B8282E"/>
</radialGradient>
<radialGradient id="paint2_radial_289_4406" cx="0" cy="0" r="1" gradientTransform="matrix(15.3961 1.52836 -1.59792 15.0586 28.8113 11.0904)" gradientUnits="userSpaceOnUse">
<stop stop-color="#00BBF2"/>
<stop offset="0.5" stop-color="#0074BE"/>
<stop offset="1" stop-color="#004C98"/>
</radialGradient>
<clipPath id="clip0_289_4406">
<rect width="200" height="60" fill="white"/>
</clipPath>
</defs>
</svg>
