<svg width="844" height="422" viewBox="0 0 844 422" fill="none" xmlns="http://www.w3.org/2000/svg">
<g opacity="0.2">
<path d="M100.83 286.66C23.727 286.66 -39 223.933 -39 146.83C-39 69.727 23.727 7 100.83 7C177.933 7 240.66 69.727 240.66 146.83C240.66 223.933 177.933 286.66 100.83 286.66ZM100.83 29.8792C36.3411 29.8792 -16.1208 82.3411 -16.1208 146.83C-16.1208 211.319 36.3411 263.78 100.83 263.78C165.319 263.78 217.78 211.319 217.78 146.83C217.78 82.3411 165.319 29.8792 100.83 29.8792Z" fill="#0085C7"/>
<path d="M400.205 286.66C323.102 286.66 260.375 223.933 260.375 146.83C260.375 69.727 323.102 7 400.205 7C477.308 7 540.035 69.727 540.035 146.83C540.035 223.933 477.308 286.66 400.205 286.66ZM400.205 29.8792C335.716 29.8792 283.254 82.3411 283.254 146.83C283.254 211.319 335.716 263.78 400.205 263.78C464.694 263.78 517.155 211.319 517.155 146.83C517.155 82.3411 464.686 29.8792 400.205 29.8792Z" fill="white"/>
<path d="M699.57 286.66C622.467 286.66 559.74 223.933 559.74 146.83C559.74 69.727 622.467 7 699.57 7C776.673 7 839.4 69.727 839.4 146.83C839.4 223.933 776.673 286.66 699.57 286.66ZM699.57 29.8792C635.081 29.8792 582.619 82.3411 582.619 146.83C582.619 211.319 635.081 263.78 699.57 263.78C764.059 263.78 816.521 211.319 816.521 146.83C816.521 82.3411 764.059 29.8792 699.57 29.8792Z" fill="#DF0024"/>
<path d="M250.726 415.049C173.624 415.049 110.896 352.322 110.896 275.219C110.896 198.117 173.624 135.39 250.726 135.39C327.829 135.39 390.556 198.117 390.556 275.219C390.556 352.322 327.829 415.049 250.726 415.049ZM250.726 158.269C186.238 158.269 133.776 210.731 133.776 275.219C133.776 339.708 186.238 392.17 250.726 392.17C315.215 392.17 367.677 339.708 367.677 275.219C367.677 210.731 315.215 158.269 250.726 158.269Z" fill="#F4C300"/>
<path d="M551.031 415.049C473.928 415.049 411.201 352.322 411.201 275.219C411.201 198.117 473.928 135.39 551.031 135.39C628.134 135.39 690.861 198.117 690.861 275.219C690.861 352.322 628.134 415.049 551.031 415.049ZM551.031 158.269C486.542 158.269 434.08 210.731 434.08 275.219C434.08 339.708 486.542 392.17 551.031 392.17C615.52 392.17 667.982 339.708 667.982 275.219C667.982 210.731 615.52 158.269 551.031 158.269Z" fill="#009F3D"/>
<path d="M194.703 250.465L179.336 233.511C203.771 211.372 217.78 179.776 217.78 146.822C217.78 82.3335 165.318 29.8715 100.83 29.8715C51.7462 29.8715 7.54361 60.8576 -9.16581 106.982L-30.6798 99.1878C-20.9867 72.4344 -3.57567 49.5247 19.6848 32.9297C43.4639 15.9686 71.5214 7 100.83 7C177.932 7 240.659 69.727 240.659 146.83C240.659 186.22 223.904 224.001 194.703 250.465Z" fill="#0085C7"/>
<path d="M506.44 237.752L489.067 222.865C507.179 201.717 517.155 174.712 517.155 146.83C517.155 96.6639 485.254 52.1411 437.779 36.0418L445.124 14.3752C501.894 33.6242 540.034 86.8488 540.034 146.83C540.034 180.173 528.106 212.463 506.44 237.752Z" fill="white"/>
<path d="M400.202 286.659C365.425 286.659 332.09 273.809 306.336 250.472L321.695 233.519C343.232 253.034 371.107 263.78 400.202 263.78V286.659Z" fill="white"/>
<path d="M699.57 286.659C666.685 286.659 634.738 275.022 609.609 253.881L624.336 236.371C645.347 254.049 672.07 263.78 699.57 263.78C719.773 263.78 739.677 258.549 757.142 248.657L768.421 268.562C747.525 280.406 723.723 286.659 699.57 286.659Z" fill="#DF0024"/>
</g>
</svg>
