<svg width="48" height="32" viewBox="0 0 48 32" fill="none" xmlns="http://www.w3.org/2000/svg">
<path d="M46.192 4.13062C49.7402 10.1249 43.53 18.9186 30.7208 23.9809C17.0982 29.366 2.78191 27.7704 0 27.2772C0 27.2772 2.41147 30.2218 10.601 31.6215C16.5171 32.6332 24.2454 31.277 30.3395 28.8583C44.743 23.1251 51.5198 11.0677 46.1884 4.13062H46.192Z" fill="url(#paint0_linear_56_2)"/>
<path d="M43.6164 12.7719C48.0108 6.39326 44.8257 0.409881 36.026 0.0182414C34.5261 -0.0506581 32.9354 0.0762635 31.3121 0.388124C25.6175 1.47601 21.2304 4.25737 19.1857 6.81391C17.0648 9.46835 17.1882 12.0285 18.2197 13.2868C20.0101 15.4735 24.4154 14.8389 25.9698 12.1736C23.9796 10.9551 27.8982 5.3235 35.1145 5.17482C40.3188 5.06604 42.4615 8.29706 41.8477 11.354C41.2013 14.5778 38.2814 17.6094 36.3747 19.292C36.3747 19.292 40.8853 16.7246 43.6127 12.7719H43.6164Z" fill="url(#paint1_radial_56_2)"/>
<path d="M33.8431 9.63142C30.7053 8.61606 27.1971 10.15 25.9659 12.1771C28.3411 13.5913 25.4066 18.563 18.7787 18.6464C13.6507 18.7116 10.64 15.6112 12.0455 11.6041C13.7488 6.75215 21.8802 1.97995 28.9585 0.246582C19.7302 1.77325 13.1532 5.7948 9.35436 10.3168C4.09198 16.583 5.90421 22.7223 13.8831 24.2454C18.0306 25.0359 23.0097 24.6116 27.9379 22.7948C39.1309 18.6609 39.1564 11.3575 33.8431 9.63504V9.63142Z" fill="url(#paint2_radial_56_2)"/>
<defs>
<linearGradient id="paint0_linear_56_2" x1="3.19609" y1="34.1539" x2="49.576" y2="10.6248" gradientUnits="userSpaceOnUse">
<stop offset="0.1" stop-color="#00BBF2"/>
<stop offset="0.4" stop-color="#0074BE"/>
<stop offset="1" stop-color="#004C98"/>
</linearGradient>
<radialGradient id="paint1_radial_56_2" cx="0" cy="0" r="1" gradientTransform="matrix(25.8611 2.65026 -2.68406 26.1124 18.5409 15.2179)" gradientUnits="userSpaceOnUse">
<stop stop-color="#F26521"/>
<stop offset="0.51" stop-color="#ED1B23"/>
<stop offset="1" stop-color="#B8282E"/>
</radialGradient>
<radialGradient id="paint2_radial_56_2" cx="0" cy="0" r="1" gradientTransform="matrix(16.4948 1.69039 -1.71195 16.6551 22.8703 12.2298)" gradientUnits="userSpaceOnUse">
<stop stop-color="#00BBF2"/>
<stop offset="0.5" stop-color="#0074BE"/>
<stop offset="1" stop-color="#004C98"/>
</radialGradient>
</defs>
</svg>
