<svg width="32" height="32" viewBox="0 0 32 32" fill="none" xmlns="http://www.w3.org/2000/svg">
<g clip-path="url(#clip0_508_6407)">
<g opacity="0.75">
<circle cx="16" cy="16" r="16" fill="white"/>
<circle cx="16" cy="16" r="16" stroke="#E2E2E2"/>
</g>
<path d="M9.97408 23H11.5603C11.8894 23 12.1551 22.7439 12.1551 22.4266V17.648H12.2582L21.1606 20.5075C21.2637 20.5419 21.3668 20.5572 21.4739 20.5572C21.6801 20.5572 21.8823 20.496 22.0528 20.3775C22.3106 20.1979 22.4652 19.9073 22.4652 19.6015V9.95644C22.4652 9.65062 22.3106 9.36008 22.0528 9.18041C21.7951 9.00073 21.462 8.95103 21.1606 9.05043L12.2582 11.9099H9.18099C8.85186 11.9099 8.58618 12.166 8.58618 12.4833V12.7548C7.67413 13.0071 7 13.8137 7 14.7771C7 15.7404 7.67413 16.547 8.58618 16.7993V17.0708C8.58618 17.3881 8.85186 17.6442 9.18099 17.6442H9.37927V22.4227C9.37927 22.74 9.64495 23 9.97408 23ZM12.9482 12.9L21.2756 10.224V19.3377L12.9482 16.6617V12.9ZM10.9654 21.8531H10.5689V17.648H10.9654V21.8531ZM9.77581 16.31V13.2517V13.0606H11.7585V16.5012H11.5603H9.97408H9.77581V16.31ZM8.58618 15.5454C8.34429 15.3696 8.18963 15.0944 8.18963 14.7809C8.18963 14.4674 8.34429 14.1922 8.58618 14.0163V15.5454Z" fill="#111111"/>
<path d="M24.4054 9.62012C24.0762 9.62012 23.8105 9.87625 23.8105 10.1935V18.9861C23.8105 19.3034 24.0762 19.5595 24.4054 19.5595C24.7345 19.5595 25.0002 19.3034 25.0002 18.9861V10.1935C25.0002 9.87625 24.7345 9.62012 24.4054 9.62012Z" fill="#111111"/>
</g>
<defs>
<clipPath id="clip0_508_6407">
<rect width="32" height="32" fill="white"/>
</clipPath>
</defs>
</svg>
